<svg width="52" height="28" viewBox="0 0 52 28" fill="none" xmlns="http://www.w3.org/2000/svg">
<path d="M11.4774 2.11377H8.00063L4.91016 11.7577H6.77272L7.62811 9.10872H11.9051L12.8019 11.7577H14.6645L11.4774 2.11377ZM8.1248 7.57728L9.73902 2.59666L11.3946 7.57728H8.1248ZM17.2134 11.7715V2.11377H15.5026V11.7715H17.2134ZM20.9847 4.65237V2.11377H19.2739V4.65237H18.2392V5.99065H18.4047C18.4047 5.99065 19.2739 5.99065 19.2739 6.94263V10.0193C19.2739 10.9989 20.0604 11.7715 21.0261 11.7715H22.1989V10.2538H21.5228C21.2331 10.2538 20.9847 10.0055 20.9847 9.71577V7.0668C20.9847 6.04584 18.8186 5.99065 18.4599 5.99065H22.1989V4.65237H20.9847ZM10.3461 19.2869C10.3461 19.2869 8.49731 18.8592 8.44212 18.8454C7.82127 18.6798 7.29699 18.3763 7.29699 17.7417C7.29699 17.0518 8.13859 16.4862 9.20094 16.4862C10.4978 16.4862 11.2291 17.2864 11.2291 18.0728H13.0364C13.0364 16.3896 11.7257 14.9685 9.20094 14.9685C7.06245 14.9685 5.48962 16.1137 5.48962 17.7555C5.48962 19.4525 6.56577 20.2665 8.13859 20.6252C8.13859 20.6252 10.0012 21.0529 10.0425 21.0667C10.76 21.246 11.3532 21.6048 11.3532 22.3084C11.3532 23.1776 10.2771 23.7295 9.14576 23.6329C7.61432 23.5087 7.04865 22.5015 7.04865 21.7841H5.25507C5.25507 23.3569 6.56577 25.0953 9.17335 25.1643C11.1325 25.2057 13.1606 24.1296 13.1606 22.3084C13.1606 20.6252 12.0017 19.687 10.3461 19.2869ZM17.5569 23.5501C16.467 23.5501 15.8875 22.5153 15.8875 21.3288C15.8875 20.1285 16.6049 19.1075 17.5431 19.1075C18.2881 19.1075 18.8814 19.6594 19.0884 20.4182H20.9371C20.6336 18.6385 19.2125 17.5899 17.5293 17.5899C15.6392 17.5899 13.9974 19.2455 14.0939 21.5496C14.1767 23.7019 15.7219 25.0539 17.5707 25.0539C19.2953 25.0539 20.5784 23.9088 20.9095 22.3498H19.0056C18.8538 22.9706 18.3019 23.5501 17.5569 23.5501ZM23.8154 20.708V20.7494V20.708ZM25.7745 17.6175C24.7259 17.7003 23.8291 18.7902 23.8154 20.708C23.8291 19.756 24.2568 19.0662 25.2364 19.0662C26.3126 19.0662 26.6575 19.8664 26.6575 20.7494V24.9022H28.3821V20.1699C28.3821 18.5143 27.0162 17.5209 25.7745 17.6175ZM22.1046 15.2445V24.9022H23.8154V15.2445H22.1046ZM33.0256 17.5899C31.1907 17.5899 29.5075 18.9558 29.5075 21.3288C29.5075 23.7019 31.1631 25.0401 33.0256 25.0539C34.902 25.0401 36.5576 23.6881 36.5576 21.3288C36.5576 18.9558 34.8606 17.5899 33.0256 17.5899ZM33.0256 23.5363C32.115 23.5363 31.2321 22.8189 31.2321 21.3288C31.2321 19.9216 32.1012 19.1213 33.0256 19.1075C33.9638 19.1213 34.833 19.9353 34.833 21.3288C34.833 22.8189 33.95 23.5363 33.0256 23.5363ZM40.9749 17.5899C39.14 17.5899 37.4568 18.9558 37.4568 21.3288C37.4568 23.7019 39.1124 25.0401 40.9749 25.0539C42.8513 25.0401 44.5069 23.6881 44.5069 21.3288C44.5069 18.9558 42.8099 17.5899 40.9749 17.5899ZM40.9749 23.5363C40.0643 23.5363 39.1814 22.8189 39.1814 21.3288C39.1814 19.9216 40.0505 19.1213 40.9749 19.1075C41.9131 19.1213 42.7823 19.9353 42.7823 21.3288C42.7823 22.8189 41.8993 23.5363 40.9749 23.5363ZM47.4342 24.9022V15.2445H45.7234V24.9022H47.4342ZM47.4545 9.66439H24.0477V11.7577H47.4545V9.66439Z" fill="#B9B9B9"/>
</svg>
