<svg width="52" height="28" viewBox="0 0 52 28" fill="none" xmlns="http://www.w3.org/2000/svg">
<path d="M11.4764 2.11377H7.99965L4.90918 11.7577H6.77174L7.62714 9.10872H11.9041L12.8009 11.7577H14.6635L11.4764 2.11377ZM8.12382 7.57728L9.73804 2.59666L11.3936 7.57728H8.12382ZM17.2124 11.7715V2.11377H15.5016V11.7715H17.2124ZM20.9838 4.65237V2.11377H19.273V4.65237H18.2382V5.99065H18.4038C18.4038 5.99065 19.273 5.99065 19.273 6.94263V10.0193C19.273 10.9989 20.0594 11.7715 21.0252 11.7715H22.1979V10.2538H21.5218C21.2321 10.2538 20.9838 10.0055 20.9838 9.71577V7.0668C20.9838 6.04584 18.8177 5.99065 18.459 5.99065H22.1979V4.65237H20.9838ZM10.3451 19.2869C10.3451 19.2869 8.49633 18.8592 8.44114 18.8454C7.82029 18.6798 7.29602 18.3763 7.29602 17.7417C7.29602 17.0518 8.13762 16.4862 9.19997 16.4862C10.4969 16.4862 11.2281 17.2864 11.2281 18.0728H13.0355C13.0355 16.3896 11.7248 14.9685 9.19997 14.9685C7.06147 14.9685 5.48864 16.1137 5.48864 17.7555C5.48864 19.4525 6.56479 20.2665 8.13762 20.6252C8.13762 20.6252 10.0002 21.0529 10.0416 21.0667C10.759 21.246 11.3523 21.6048 11.3523 22.3084C11.3523 23.1776 10.2761 23.7295 9.14478 23.6329C7.61334 23.5087 7.04767 22.5015 7.04767 21.7841H5.2541C5.2541 23.3569 6.56479 25.0953 9.17237 25.1643C11.1315 25.2057 13.1596 24.1296 13.1596 22.3084C13.1596 20.6252 12.0007 19.687 10.3451 19.2869ZM17.5559 23.5501C16.466 23.5501 15.8865 22.5153 15.8865 21.3288C15.8865 20.1285 16.604 19.1075 17.5421 19.1075C18.2872 19.1075 18.8804 19.6594 19.0874 20.4182H20.9361C20.6326 18.6385 19.2115 17.5899 17.5283 17.5899C15.6382 17.5899 13.9964 19.2455 14.093 21.5496C14.1757 23.7019 15.721 25.0539 17.5697 25.0539C19.2943 25.0539 20.5774 23.9088 20.9085 22.3498H19.0046C18.8528 22.9706 18.301 23.5501 17.5559 23.5501ZM23.8144 20.708V20.7494V20.708ZM25.7735 17.6175C24.725 17.7003 23.8282 18.7902 23.8144 20.708C23.8282 19.756 24.2559 19.0662 25.2354 19.0662C26.3116 19.0662 26.6565 19.8664 26.6565 20.7494V24.9022H28.3811V20.1699C28.3811 18.5143 27.0152 17.5209 25.7735 17.6175ZM22.1036 15.2445V24.9022H23.8144V15.2445H22.1036ZM33.0246 17.5899C31.1897 17.5899 29.5065 18.9558 29.5065 21.3288C29.5065 23.7019 31.1621 25.0401 33.0246 25.0539C34.901 25.0401 36.5566 23.6881 36.5566 21.3288C36.5566 18.9558 34.8596 17.5899 33.0246 17.5899ZM33.0246 23.5363C32.1141 23.5363 31.2311 22.8189 31.2311 21.3288C31.2311 19.9216 32.1003 19.1213 33.0246 19.1075C33.9628 19.1213 34.832 19.9353 34.832 21.3288C34.832 22.8189 33.949 23.5363 33.0246 23.5363ZM40.9739 17.5899C39.139 17.5899 37.4558 18.9558 37.4558 21.3288C37.4558 23.7019 39.1114 25.0401 40.9739 25.0539C42.8503 25.0401 44.5059 23.6881 44.5059 21.3288C44.5059 18.9558 42.8089 17.5899 40.9739 17.5899ZM40.9739 23.5363C40.0634 23.5363 39.1804 22.8189 39.1804 21.3288C39.1804 19.9216 40.0496 19.1213 40.9739 19.1075C41.9121 19.1213 42.7813 19.9353 42.7813 21.3288C42.7813 22.8189 41.8983 23.5363 40.9739 23.5363ZM47.4332 24.9022V15.2445H45.7224V24.9022H47.4332ZM47.4536 9.66439H24.0467V11.7577H47.4536V9.66439Z" fill="#464646"/>
</svg>
