<svg width="131" height="25" viewBox="0 0 131 25" fill="none" xmlns="http://www.w3.org/2000/svg">
<g clip-path="url(#clip0_91_663)">
<path d="M11.9981 0.658203H5.2738L5.26091 0.681583L4.33288 2.37208H11.9981C17.676 2.37208 22.2818 6.97645 22.2818 12.6563C22.2818 18.3361 17.6775 22.9405 11.9981 22.9405C6.31873 22.9405 1.71388 18.3357 1.71388 12.6563C1.71341 11.5819 1.88166 10.5141 2.21249 9.49192H4.1759C2.78406 12.9314 3.80227 16.8765 6.68481 19.2127C9.56735 21.5489 13.6378 21.7281 16.7144 19.6542C19.7911 17.5802 21.152 13.7399 20.0677 10.1914C18.9835 6.64298 15.7085 4.21917 11.9981 4.21908H3.31944L2.37901 5.93248H11.9981C15.0198 5.93309 17.6698 7.94964 18.4759 10.8618C19.2821 13.774 18.0462 16.8662 15.4549 18.4206C12.8637 19.9749 9.55375 19.6094 7.36402 17.5272C5.17429 15.4449 4.64283 12.1576 6.06489 9.49144H8.2893C6.80456 11.2344 6.73273 13.7758 8.11667 15.5998C9.50061 17.4239 11.9674 18.0391 14.0458 17.0786C16.1243 16.1182 17.2543 13.8408 16.762 11.6047C16.2697 9.36859 14.2877 7.77635 11.9981 7.77757H1.36557L0.424652 9.49192C0.143005 10.5231 0.000194836 11.5873 0 12.6563C0 19.2823 5.37161 24.6544 11.9981 24.6544C18.6246 24.6544 23.9962 19.2823 23.9962 12.6563C23.9962 6.03029 18.6241 0.658203 11.9981 0.658203ZM11.9981 9.49192C13.7457 9.49192 15.1625 10.9087 15.1625 12.6563C15.1625 14.4039 13.7457 15.8207 11.9981 15.8207C10.2505 15.8207 8.83372 14.4039 8.83372 12.6563C8.83372 10.9087 10.2505 9.49192 11.9981 9.49192ZM29.27 12.9097C29.27 9.57637 31.5063 7.23458 34.8601 7.23458C36.9276 7.23458 38.6152 8.14114 39.5012 9.66083L37.5607 11.0321C36.9486 10.0611 36.0205 9.59737 34.9236 9.59737C33.1105 9.59737 31.9071 10.8856 31.9071 12.9097C31.9071 14.9136 33.1095 16.2215 34.9236 16.2215C36.021 16.2215 36.9486 15.7362 37.5607 14.7657L39.5012 16.137C38.6152 17.6772 36.9276 18.5633 34.8601 18.5633C31.5063 18.5633 29.27 16.2215 29.27 12.9097ZM39.8658 12.9097C39.8658 9.78727 42.0811 7.23458 45.5198 7.23458C48.9796 7.23458 51.1734 9.78727 51.1734 12.9097C51.1734 16.011 48.9786 18.5633 45.5198 18.5633C42.0835 18.5633 39.8658 16.0106 39.8658 12.9097ZM48.5363 12.9097C48.5363 10.9477 47.3759 9.57637 45.5198 9.57637C43.6638 9.57637 42.5029 10.9477 42.5029 12.9097C42.5029 14.8502 43.6633 16.2215 45.5198 16.2215C47.3764 16.2215 48.5363 14.8502 48.5363 12.9097ZM68.067 7.52898L64.7747 18.2669H61.9949L59.6679 10.6934L57.3204 18.2669H54.5368L51.2636 7.52898H53.8173L56.0412 15.271L58.4297 7.52898H60.9008L63.2899 15.271L65.4928 7.52898H68.067ZM104.231 7.52898L100.936 18.2669H98.1562L95.8292 10.6934L93.4817 18.2669H90.7038L87.4297 7.53136H89.9833L92.2072 15.2734L94.5934 7.52898H97.0645L99.4535 15.271L101.657 7.52898H104.231ZM75.7694 7.48794V9.89272C75.3788 9.82799 74.9839 9.79274 74.588 9.78727C72.7105 9.78727 71.719 10.7368 71.719 12.9726V18.2689H69.1467V7.52898H71.6755V9.32301C72.2033 8.07864 73.3632 7.34003 74.8399 7.34003C75.1561 7.33386 75.4708 7.38395 75.7694 7.48794ZM86.4472 7.52898V17.191C86.4472 20.7986 84.4433 22.7811 80.8986 22.7811C79.0635 22.7811 77.3759 22.2329 76.3629 21.2834L77.5233 19.4059C78.4299 20.1216 79.6118 20.4818 80.7512 20.4818C82.7342 20.4818 83.9156 19.3639 83.9156 17.1896V16.2635C83.3039 17.4448 81.996 18.162 80.4134 18.162C78.135 18.162 76.7008 16.7277 76.7008 14.1116V7.52898H79.2744V13.4579C79.2744 15.1035 79.9496 15.8207 81.2994 15.8207C82.8606 15.8207 83.8946 14.8716 83.8946 13.31V7.52898H86.4472ZM104.908 4.13367C104.908 3.20516 105.562 2.53001 106.554 2.53001C107.524 2.53001 108.176 3.20516 108.176 4.13367C108.176 5.06218 107.522 5.73685 106.554 5.73685C105.562 5.73685 104.908 5.0617 104.908 4.13367ZM105.267 7.52993H107.841V18.2679H105.267V7.52993ZM109.136 16.5168L110.528 14.8922C111.371 15.8207 112.68 16.3689 114.051 16.3689C115.274 16.3689 115.95 15.9051 115.95 15.23C115.95 14.6603 115.527 14.3019 114.452 14.0486L112.701 13.6478C110.464 13.1205 109.515 12.0866 109.515 10.6099C109.515 8.62687 111.161 7.23458 113.946 7.23458C115.844 7.23458 117.426 7.88826 118.354 8.94369L116.983 10.6099C116.055 9.80826 115 9.42846 113.882 9.42846C112.679 9.42846 112.089 9.87172 112.089 10.5259C112.089 11.0321 112.447 11.3485 113.586 11.6013L115.443 12.0446C117.7 12.5508 118.523 13.5843 118.523 15.0611C118.523 17.192 116.877 18.5633 114.03 18.5633C111.899 18.5633 110.106 17.7617 109.136 16.5168ZM129.953 13.6688H121.956C122.231 15.3989 123.37 16.3269 125.121 16.3269C126.323 16.3269 127.336 15.8841 128.116 14.9766L129.656 16.4958C128.644 17.8036 127.019 18.5633 125.036 18.5633C121.618 18.5633 119.34 16.3269 119.34 12.9516C119.34 9.61836 121.535 7.23458 124.783 7.23458C127.905 7.23458 130.015 9.40747 130.015 12.6773C130.014 13.0087 129.994 13.3399 129.953 13.6688ZM121.956 11.9186H127.443C127.317 10.336 126.346 9.4714 124.807 9.4714C123.223 9.47093 122.232 10.378 121.956 11.9186Z" fill="#B9B9B9"/>
</g>
<defs>
<clipPath id="clip0_91_663">
<rect width="130.02" height="24" fill="white" transform="translate(0 0.658203)"/>
</clipPath>
</defs>
</svg>
