<svg width="16" height="14" viewBox="0 0 16 14" fill="none" xmlns="http://www.w3.org/2000/svg">
<path d="M1.26573 7.23725C0.856622 7.15743 0.459648 7.4244 0.379831 7.83351C0.30001 8.24261 0.566976 8.63959 0.976083 8.7194C1.42412 8.80762 1.96571 9.2501 2.51323 9.87049C3.23428 10.6878 3.92374 11.7875 4.44447 12.8446L4.44269 12.8455C4.62679 13.2198 5.08035 13.3741 5.45466 13.19C5.59288 13.1219 5.70109 13.0173 5.77342 12.8934C6.96679 10.956 8.33876 9.07837 9.92126 7.27462C11.5141 5.4589 13.3277 3.70676 15.3965 2.02982C15.7193 1.76732 15.7684 1.29268 15.5059 0.969662C15.2434 0.646805 14.7688 0.597699 14.4458 0.860199C12.3111 2.59039 10.4367 4.40182 8.78724 6.28237C7.43511 7.82381 6.23689 9.40649 5.1728 11.0234C4.71387 10.2457 4.18834 9.49339 3.641 8.87304C2.88727 8.0191 2.06688 7.39574 1.26564 7.23752L1.26573 7.23725Z" fill="#04C756"/>
</svg>
