<svg width="32" height="32" viewBox="0 0 32 32" fill="none" xmlns="http://www.w3.org/2000/svg">
<path d="M9.26573 16.2373C8.85662 16.1574 8.45965 16.4244 8.37983 16.8335C8.30001 17.2426 8.56698 17.6396 8.97608 17.7194C9.42412 17.8076 9.96571 18.2501 10.5132 18.8705C11.2343 19.6878 11.9237 20.7875 12.4445 21.8446L12.4427 21.8455C12.6268 22.2198 13.0804 22.3741 13.4547 22.19C13.5929 22.1219 13.7011 22.0173 13.7734 21.8934C14.9668 19.956 16.3388 18.0784 17.9213 16.2746C19.5141 14.4589 21.3277 12.7068 23.3965 11.0298C23.7193 10.7673 23.7684 10.2927 23.5059 9.96966C23.2434 9.64681 22.7688 9.5977 22.4458 9.8602C20.3111 11.5904 18.4367 13.4018 16.7872 15.2824C15.4351 16.8238 14.2369 18.4065 13.1728 20.0234C12.7139 19.2457 12.1883 18.4934 11.641 17.873C10.8873 17.0191 10.0669 16.3957 9.26564 16.2375L9.26573 16.2373Z" fill="#04C756"/>
</svg>
