<svg width="86" height="25" viewBox="0 0 86 25" fill="none" xmlns="http://www.w3.org/2000/svg">
<path d="M49.8969 9.30432V21.684H46.3068V19.8761C45.9402 20.5042 45.4082 21.0197 44.7688 21.3661C44.1071 21.7143 43.3685 21.8907 42.6208 21.8792C41.0743 21.8792 39.9185 21.4476 39.1534 20.5843C38.3883 19.721 38.0065 18.4187 38.0082 16.6774V9.30432H41.6904V16.7511C41.6904 18.2485 42.3332 18.9972 43.6187 18.9972C44.383 18.9972 45.0016 18.737 45.4746 18.2166C45.9475 17.6962 46.1836 17.0125 46.1828 16.1656V9.30432H49.8969ZM63.9754 3.6582V21.684H60.3374V19.8527C59.9604 20.4892 59.4105 21.0055 58.7515 21.3416C58.0339 21.708 57.2373 21.8926 56.4317 21.8792C55.426 21.8958 54.4384 21.6106 53.5964 21.0605C52.7469 20.4927 52.0745 19.6973 51.6558 18.7653C51.1919 17.7833 50.9599 16.6561 50.9599 15.3837C50.9599 14.1113 51.1919 12.9923 51.6558 12.0267C52.0738 11.1111 52.7423 10.3324 53.5841 9.78056C54.435 9.24389 55.4247 8.96862 56.4305 8.98887C57.2186 8.97919 57.9974 9.15937 58.7012 9.51421C59.3567 9.83863 59.907 10.3421 60.2883 10.9662V3.6582H63.9754ZM59.6107 18.1307C60.1017 17.5047 60.3472 16.6046 60.3472 15.4304C60.3472 14.2741 60.0988 13.383 59.6021 12.757C59.1054 12.1311 58.4099 11.8177 57.5155 11.8168C56.6031 11.8168 55.8949 12.1262 55.3909 12.7448C54.8868 13.3634 54.6348 14.2422 54.6348 15.3813C54.6348 16.553 54.8868 17.4605 55.3909 18.1037C55.8949 18.7468 56.6031 19.0684 57.5155 19.0684C58.4214 19.0701 59.1198 18.7575 59.6107 18.1307ZM78.0539 9.30432V21.684H74.4146V19.8527C74.0376 20.4896 73.4872 21.006 72.8275 21.3416C72.1101 21.707 71.314 21.8908 70.509 21.8768C69.504 21.9039 68.5136 21.6318 67.6636 21.0948C66.8137 20.5578 66.1426 19.7803 65.7355 18.861C65.2716 17.893 65.0396 16.774 65.0396 15.504C65.0396 14.234 65.2716 13.1024 65.7355 12.109C66.1518 11.1725 66.8246 10.3729 67.6761 9.80265C68.518 9.25474 69.5046 8.97132 70.509 8.98887C71.3171 8.97591 72.1151 9.1694 72.8275 9.55103C73.4853 9.90054 74.0343 10.4241 74.4146 11.0644V9.30432H78.0539ZM73.6831 18.1417C74.174 17.5231 74.4195 16.6279 74.4195 15.4561C74.4195 14.2844 74.174 13.3843 73.6831 12.7558C73.1921 12.1282 72.4921 11.8148 71.5829 11.8156C70.6738 11.8164 69.9656 12.1425 69.4583 12.7939C68.9542 13.4485 68.7018 14.3523 68.701 15.5052C68.7002 16.6582 68.9485 17.5411 69.446 18.154C69.9427 18.7636 70.655 19.0688 71.5829 19.0697C72.4937 19.0705 73.1937 18.7616 73.6831 18.1429V18.1417ZM37.2582 21.8583H32.6836L27.7617 16.2454V21.8583H24.0279V3.6582H27.7617V14.7111L32.4603 9.34605H36.9366L31.6195 15.3604L37.2582 21.8583ZM13.7986 21.8645L6.63295 13.6162L10.546 21.8645H7.83336L3.8418 13.4554L5.50127 21.8645H3.83444L2.17374 13.4432V21.8645H1.51953V3.6582H2.17374V12.7411L3.85776 3.6582H5.51968L3.8283 12.7804L7.89719 3.6582H10.5803L6.52739 12.7472L13.887 3.6582H18.0921L10.4797 13.0614L18.1277 21.8645H13.7986Z" fill="#464646"/>
<path d="M81.1456 21.6638C82.2621 21.6638 83.1671 20.7588 83.1671 19.6423C83.1671 18.5258 82.2621 17.6207 81.1456 17.6207C80.0291 17.6207 79.124 18.5258 79.124 19.6423C79.124 20.7588 80.0291 21.6638 81.1456 21.6638Z" fill="#464646"/>
</svg>
