<svg width="83" height="19" viewBox="0 0 83 19" fill="none" xmlns="http://www.w3.org/2000/svg">
<path d="M48.8973 6.30432V18.684H45.3071V16.8761C44.9406 17.5042 44.4086 18.0197 43.7692 18.3661C43.1074 18.7143 42.3688 18.8907 41.6212 18.8792C40.0746 18.8792 38.9188 18.4476 38.1537 17.5843C37.3886 16.721 37.0069 15.4187 37.0086 13.6774V6.30432H40.6908V13.7511C40.6908 15.2485 41.3336 15.9972 42.6191 15.9972C43.3833 15.9972 44.002 15.737 44.4749 15.2166C44.9479 14.6962 45.184 14.0125 45.1832 13.1656V6.30432H48.8973ZM62.9758 0.658203V18.684H59.3377V16.8527C58.9608 17.4892 58.4108 18.0055 57.7519 18.3416C57.0343 18.708 56.2377 18.8926 55.4321 18.8792C54.4264 18.8958 53.4388 18.6106 52.5967 18.0605C51.7473 17.4927 51.0748 16.6973 50.6562 15.7653C50.1922 14.7833 49.9603 13.6561 49.9603 12.3837C49.9603 11.1113 50.1922 9.9923 50.6562 9.02673C51.0742 8.11108 51.7427 7.33237 52.5845 6.78056C53.4354 6.24389 54.425 5.96862 55.4309 5.98887C56.219 5.97919 56.9978 6.15937 57.7016 6.51421C58.3571 6.83863 58.9074 7.34207 59.2886 7.96624V0.658203H62.9758ZM58.6111 15.1307C59.1021 14.5047 59.3475 13.6046 59.3475 12.4304C59.3475 11.2741 59.0992 10.383 58.6025 9.75705C58.1058 9.13106 57.4103 8.81766 56.5159 8.81684C55.6035 8.81684 54.8953 9.12615 54.3912 9.74477C53.8872 10.3634 53.6351 11.2422 53.6351 12.3813C53.6351 13.553 53.8872 14.4605 54.3912 15.1037C54.8953 15.7468 55.6035 16.0684 56.5159 16.0684C57.4217 16.0701 58.1201 15.7575 58.6111 15.1307ZM77.0543 6.30432V18.684H73.415V16.8527C73.038 17.4896 72.4875 18.006 71.8279 18.3416C71.1105 18.707 70.3143 18.8908 69.5093 18.8768C68.5043 18.9039 67.5139 18.6318 66.664 18.0948C65.8141 17.5578 65.1429 16.7803 64.7359 15.861C64.2719 14.893 64.04 13.774 64.04 12.504C64.04 11.234 64.2719 10.1024 64.7359 9.10897C65.1522 8.17248 65.8249 7.3729 66.6764 6.80265C67.5184 6.25474 68.505 5.97132 69.5093 5.98887C70.3174 5.97591 71.1155 6.1694 71.8279 6.55103C72.4856 6.90054 73.0346 7.42407 73.415 8.06444V6.30432H77.0543ZM72.6834 15.1417C73.1744 14.5231 73.4199 13.6279 73.4199 12.4561C73.4199 11.2844 73.1744 10.3843 72.6834 9.75582C72.1925 9.1282 71.4924 8.8148 70.5833 8.81562C69.6742 8.81643 68.966 9.14252 68.4587 9.79387C67.9546 10.4485 67.7022 11.3523 67.7013 12.5052C67.7005 13.6582 67.9489 14.5411 68.4464 15.154C68.9431 15.7636 69.6554 16.0688 70.5833 16.0697C71.4941 16.0705 72.1941 15.7616 72.6834 15.1429V15.1417ZM36.2586 18.8583H31.684L26.7621 13.2454V18.8583H23.0283V0.658203H26.7621V11.7111L31.4606 6.34605H35.937L30.6198 12.3604L36.2586 18.8583ZM12.799 18.8645L5.63332 10.6162L9.54632 18.8645H6.83373L2.84217 10.4554L4.50164 18.8645H2.83481L1.17411 10.4432V18.8645H0.519897V0.658203H1.17411V9.74109L2.85813 0.658203H4.52005L2.82867 9.78037L6.89756 0.658203H9.58069L5.52776 9.74722L12.8874 0.658203H17.0925L9.48004 10.0614L17.1281 18.8645H12.799Z" fill="#B9B9B9"/>
<path d="M80.1463 18.6637C81.2628 18.6637 82.1679 17.7586 82.1679 16.6422C82.1679 15.5257 81.2628 14.6206 80.1463 14.6206C79.0298 14.6206 78.1248 15.5257 78.1248 16.6422C78.1248 17.7586 79.0298 18.6637 80.1463 18.6637Z" fill="#B9B9B9"/>
</svg>
