 <svg width="65" height="63" viewBox="0 0 65 63" fill="none" xmlns="http://www.w3.org/2000/svg">
            <circle cx="32.5" cy="31.5" r="31.25" stroke="black" strokeWidth="0.5" />
            <path
              d="M41.8534 33.3009H21.0156C20.5143 33.3009 20.1077 32.8947 20.1077 32.393C20.1077 31.8913 20.5143 31.485 21.0156 31.485L41.8534 31.4846C42.3547 31.4846 42.7614 31.8909 42.7614 32.3926C42.7618 32.8947 42.3547 33.3009 41.8534 33.3009Z"
              fill="black"
            />
            <path
              d="M36.3597 39.7798C36.1228 39.7798 35.8868 39.6878 35.709 39.5049C35.3589 39.1451 35.3673 38.5708 35.7267 38.2207L41.7546 32.3563L35.69 25.7376C35.3504 25.3676 35.3758 24.7933 35.7457 24.4546C36.1148 24.1168 36.6912 24.1405 37.0286 24.5108L43.6886 31.7793C44.021 32.1413 44.0041 32.7012 43.6523 33.0432L36.9926 39.5226C36.8165 39.6945 36.5877 39.7798 36.3596 39.7798L36.3597 39.7798Z"
              fill="black"
            />
          </svg>