 <svg width="65" height="63" viewBox="0 0 65 63" fill="none" xmlns="http://www.w3.org/2000/svg">
  <circle cx="32.5" cy="31.5" r="31.25" stroke="black" strokeWidth="0.5" />
  <path
    d="M24.1466 30.6991L44.9844 30.6991C45.4857 30.6991 45.8923 31.1053 45.8923 31.607C45.8923 32.1087 45.4857 32.515 44.9844 32.515L24.1466 32.5154C23.6453 32.5154 23.2386 32.1091 23.2386 31.6074C23.2382 31.1053 23.6453 30.6991 24.1466 30.6991Z"
    fill="black"
  />
  <path
    d="M29.6403 24.2202C29.8772 24.2202 30.1132 24.3122 30.291 24.4951C30.6411 24.8549 30.6327 25.4292 30.2733 25.7793L24.2454 31.6437L30.31 38.2624C30.6496 38.6324 30.6242 39.2067 30.2543 39.5454C29.8852 39.8832 29.3088 39.8595 28.9714 39.4892L22.3114 32.2207C21.979 31.8587 21.9959 31.2988 22.3477 30.9568L29.0074 24.4774C29.1835 24.3055 29.4123 24.2202 29.6404 24.2202L29.6403 24.2202Z"
    fill="black"
  />
          </svg>