<svg width="24" height="24" viewBox="0 0 24 24" fill="none" xmlns="http://www.w3.org/2000/svg">
<path d="M6.94942 12.1779C6.64259 12.1181 6.34486 12.3183 6.285 12.6251C6.22513 12.932 6.42535 13.2297 6.73218 13.2896C7.06821 13.3557 7.4744 13.6876 7.88504 14.1529C8.42583 14.7659 8.94293 15.5906 9.33348 16.3835L9.33214 16.3841C9.47022 16.6648 9.81039 16.7805 10.0911 16.6425C10.1948 16.5915 10.2759 16.513 10.3302 16.42C11.2252 14.967 12.2542 13.5588 13.4411 12.206C14.6357 10.8442 15.9959 9.53007 17.5475 8.27237C17.7896 8.07549 17.8264 7.71951 17.6296 7.47725C17.4327 7.2351 17.0767 7.19827 16.8344 7.39515C15.2335 8.6928 13.8276 10.0514 12.5906 11.4618C11.5765 12.6179 10.6778 13.8049 9.87972 15.0175C9.53553 14.4343 9.14138 13.87 8.73087 13.4048C8.16557 12.7643 7.55028 12.2968 6.94935 12.1781L6.94942 12.1779Z" fill="white"/>
</svg>
